<svg xmlns="http://www.w3.org/2000/svg" viewBox="0 0 315.93 86.35"><defs><style>.cls-1{mix-blend-mode:multiply;}.cls-2{isolation:isolate;}.cls-3{fill:#f8c2bf;}.cls-3,.cls-4,.cls-5,.cls-6,.cls-7,.cls-8,.cls-9,.cls-10,.cls-11,.cls-12,.cls-13,.cls-14,.cls-15,.cls-16,.cls-17,.cls-18,.cls-19{stroke-width:0px;}.cls-4{fill:#74869d;}.cls-5{fill:#5c728c;}.cls-6{fill:#455d7c;}.cls-7{fill:#a2aebd;}.cls-8{fill:#2e496b;}.cls-9{fill:#17355b;}.cls-10{fill:#252523;}.cls-11{fill:#b9c2ce;}.cls-12{fill:#8b9aad;}.cls-13{fill:#f39995;}.cls-14{fill:#ef706a;}.cls-15{fill:#ec5c55;}.cls-16{fill:#f1857f;}.cls-17{fill:#e8332a;}.cls-18{fill:#f6adaa;}.cls-19{fill:#ea4740;}</style></defs><g class="cls-2"><g id="Layer_1"><path class="cls-16" d="m54.4,21.68l-.3-5.37c-.15-1.79-.25-3.58-.45-5.37-.35-3.58-.8-7.16-1.53-10.74-.02-.1-.1-.18-.2-.2-.14-.03-.28.06-.3.2-.72,3.58-1.17,7.16-1.53,10.74-.2,1.79-.3,3.58-.45,5.37l-.3,5.37c-.15,3.58-.14,7.16.03,10.74.19,3.58.34,7.16.48,10.74l.34,10.74.42,10.74c.34,7.16.61,14.32,1.01,21.48,0,.13.11.23.24.24.14,0,.26-.1.27-.24.4-7.16.67-14.32,1.01-21.48l.42-10.74.34-10.74c.14-3.58.29-7.16.48-10.74.16-3.58.17-7.16.03-10.74Z"/><path class="cls-14" d="m47.64,23.53c-.14-3.27-.4-6.54-.75-9.81-.35-3.27-.8-6.54-1.53-9.81-.02-.1-.1-.17-.2-.2-.14-.03-.28.06-.31.2-.72,3.27-1.17,6.54-1.53,9.81-.35,3.27-.61,6.54-.75,9.81-.15,3.27-.14,6.54.03,9.81.19,3.27.34,6.54.48,9.81l.34,9.81.42,9.81c.34,6.54.61,13.08,1.01,19.62,0,.13.11.23.24.24.14,0,.26-.1.27-.24.4-6.54.67-13.08,1.01-19.62l.42-9.81.34-9.81c.14-3.27.29-6.54.48-9.81.16-3.27.17-6.54.03-9.81Z"/><path class="cls-15" d="m40.89,25.67c-.14-2.91-.4-5.83-.75-8.74-.35-2.91-.8-5.83-1.53-8.74-.02-.09-.09-.17-.19-.19-.14-.03-.28.05-.32.19-.72,2.91-1.17,5.83-1.53,8.74-.35,2.91-.61,5.83-.75,8.74-.15,2.91-.14,5.83.03,8.74.17,2.91.37,5.83.48,8.74l.34,8.74.42,8.74c.34,5.83.61,11.66,1.01,17.49,0,.12.11.23.24.24.14,0,.26-.1.27-.24.4-5.83.67-11.66,1.01-17.49l.42-8.74.34-8.74c.11-2.91.31-5.83.48-8.74.16-2.91.17-5.83.03-8.74Z"/><path class="cls-19" d="m34.14,28.15c-.15-2.5-.38-5-.75-7.5-.35-2.5-.8-5-1.53-7.5-.02-.08-.09-.15-.18-.18-.14-.04-.29.04-.33.18-.72,2.5-1.17,5-1.53,7.5-.37,2.5-.6,5-.75,7.5-.15,2.5-.14,5,.03,7.5.17,2.5.37,5,.48,7.5l.34,7.5.42,7.5c.34,5,.61,10,1.01,15,0,.12.11.22.23.23.14.01.26-.09.27-.23.4-5,.67-10,1.01-15l.42-7.5.34-7.5c.11-2.5.31-5,.48-7.5.16-2.5.17-5,.03-7.5Z"/><path class="cls-3" d="m74.65,28.15c-.15-2.5-.38-5-.75-7.5-.35-2.5-.8-5-1.53-7.5-.02-.08-.09-.15-.18-.18-.14-.04-.29.04-.33.18-.72,2.5-1.17,5-1.53,7.5-.37,2.5-.6,5-.75,7.5-.15,2.5-.14,5,.03,7.5.17,2.5.37,5,.48,7.5l.34,7.5.42,7.5c.34,5,.61,10,1.01,15,0,.12.11.22.23.23.14.01.26-.09.27-.23.4-5,.67-10,1.01-15l.42-7.5.34-7.5c.11-2.5.31-5,.48-7.5.16-2.5.17-5,.03-7.5Z"/><path class="cls-18" d="m67.9,25.67c-.14-2.91-.4-5.83-.75-8.74-.35-2.91-.8-5.83-1.53-8.74-.02-.09-.09-.17-.19-.19-.14-.03-.28.05-.32.19-.72,2.91-1.17,5.83-1.53,8.74-.35,2.91-.61,5.83-.75,8.74-.15,2.91-.14,5.83.03,8.74.17,2.91.37,5.83.48,8.74l.34,8.74.42,8.74c.34,5.83.61,11.66,1.01,17.49,0,.12.11.23.24.24.14,0,.26-.1.27-.24.4-5.83.67-11.66,1.01-17.49l.42-8.74.34-8.74c.11-2.91.31-5.83.48-8.74.16-2.91.17-5.83.03-8.74Z"/><path class="cls-13" d="m61.15,23.53c-.14-3.27-.4-6.54-.75-9.81-.35-3.27-.8-6.54-1.53-9.81-.02-.1-.1-.17-.2-.2-.14-.03-.28.06-.31.2-.72,3.27-1.17,6.54-1.53,9.81-.35,3.27-.61,6.54-.75,9.81-.15,3.27-.14,6.54.03,9.81.19,3.27.34,6.54.48,9.81l.34,9.81.42,9.81c.34,6.54.61,13.08,1.01,19.62,0,.13.11.23.24.24.14,0,.26-.1.27-.24.4-6.54.67-13.08,1.01-19.62l.42-9.81.34-9.81c.14-3.27.29-6.54.48-9.81.16-3.27.17-6.54.03-9.81Z"/><path class="cls-17" d="m16.8,33.27c-.22-4.67-.56-9.34-1.45-14.01-.01-.06-.06-.12-.13-.13-.09-.02-.17.04-.19.13-.89,4.67-1.23,9.34-1.45,14.01-.24,4.67.18,9.34.32,14.01l.48,14.01c.22,4.67.39,9.34.64,14.01,0,.08.07.15.15.15.09,0,.16-.06.17-.15.26-4.67.43-9.34.64-14.01l.48-14.01c.14-4.67.56-9.34.32-14.01Z"/><path class="cls-17" d="m21.31,36.51c-.22-4.31-.56-8.62-1.45-12.93-.01-.06-.06-.11-.13-.13-.09-.02-.18.04-.19.13-.89,4.31-1.23,8.62-1.45,12.93-.24,4.31.18,8.62.32,12.93l.48,12.93c.22,4.31.39,8.62.64,12.93,0,.08.07.15.15.15.09,0,.17-.06.17-.15.26-4.31.43-8.62.64-12.93l.48-12.93c.14-4.31.56-8.62.32-12.93Z"/><path class="cls-17" d="m25.81,40.03c-.22-3.92-.56-7.84-1.45-11.75-.01-.06-.06-.11-.12-.12-.09-.02-.18.04-.2.12-.89,3.92-1.23,7.84-1.45,11.75-.24,3.92.18,7.84.32,11.75l.48,11.75c.22,3.92.39,7.84.64,11.75,0,.08.07.14.15.15.09,0,.17-.06.17-.15.26-3.92.43-7.84.64-11.75l.48-11.75c.14-3.92.56-7.84.32-11.75Z"/><path class="cls-17" d="m3.29,45.1c-.22-3.5-.56-6.99-1.45-10.49-.01-.06-.06-.1-.12-.12-.09-.02-.18.03-.2.12-.89,3.5-1.23,6.99-1.45,10.49-.24,3.5.18,6.99.32,10.49.13,3.5.29,6.99.48,10.49.22,3.5.39,6.99.64,10.49,0,.08.07.14.15.15.09,0,.17-.06.17-.15.26-3.5.43-6.99.64-10.49.19-3.5.35-6.99.48-10.49.14-3.5.56-6.99.32-10.49Z"/><path class="cls-17" d="m7.79,40.03c-.22-3.92-.56-7.84-1.45-11.75-.01-.06-.06-.11-.12-.12-.09-.02-.18.04-.2.12-.89,3.92-1.23,7.84-1.45,11.75-.24,3.92.18,7.84.32,11.75l.48,11.75c.22,3.92.39,7.84.64,11.75,0,.08.07.14.15.15.09,0,.17-.06.17-.15.26-3.92.43-7.84.64-11.75l.48-11.75c.14-3.92.56-7.84.32-11.75Z"/><path class="cls-17" d="m12.3,36.38c-.22-4.32-.56-8.65-1.45-12.97-.01-.06-.06-.11-.13-.13-.09-.02-.18.04-.19.13-.89,4.32-1.23,8.65-1.45,12.97-.24,4.32.18,8.65.32,12.97l.48,12.97c.22,4.32.39,8.65.64,12.97,0,.08.07.15.15.15.09,0,.17-.06.17-.15.26-4.32.43-8.65.64-12.97l.48-12.97c.14-4.32.56-8.65.32-12.97Z"/><g class="cls-1"><path class="cls-4" d="m51.61,86.11c-.4-7.16-.67-14.32-1.01-21.48l-.42-10.74-.34-10.74c-.14-3.58-.29-7.16-.48-10.74-.16-3.58-.17-7.16-.03-10.74l.3-5.37c.15-1.79.25-3.58.45-5.37.35-3.58.8-7.16,1.53-10.74.03-.14.16-.23.3-.2.1.02.18.1.2.2.72,3.58,1.17,7.16,1.53,10.74.2,1.79.3,3.58.45,5.37l.3,5.37c.15,3.58.14,7.16-.03,10.74-.19,3.58-.34,7.16-.48,10.74l-.34,10.74-.42,10.74c-.34,7.16-.61,14.32-1.01,21.48,0,.14-.13.25-.27.24-.13,0-.23-.11-.24-.24Z"/><path class="cls-12" d="m44.86,82.41c-.4-6.54-.67-13.08-1.01-19.62l-.42-9.81-.34-9.81c-.14-3.27-.29-6.54-.48-9.81-.16-3.27-.17-6.54-.03-9.81.14-3.27.4-6.54.75-9.81.35-3.27.8-6.54,1.53-9.81.03-.14.17-.23.31-.2.1.02.18.1.2.2.72,3.27,1.17,6.54,1.53,9.81.35,3.27.61,6.54.75,9.81.15,3.27.14,6.54-.03,9.81-.19,3.27-.34,6.54-.48,9.81l-.34,9.81-.42,9.81c-.34,6.54-.61,13.08-1.01,19.62,0,.14-.13.25-.27.24-.13,0-.23-.11-.24-.24Z"/><path class="cls-7" d="m38.11,78.13c-.4-5.83-.67-11.66-1.01-17.49l-.42-8.74-.34-8.74c-.11-2.91-.31-5.83-.48-8.74-.16-2.91-.17-5.83-.03-8.74.14-2.91.4-5.83.75-8.74.35-2.91.8-5.83,1.53-8.74.03-.14.18-.22.32-.19.1.02.17.1.19.19.72,2.91,1.17,5.83,1.53,8.74.35,2.91.61,5.83.75,8.74.15,2.91.14,5.83-.03,8.74-.17,2.91-.37,5.83-.48,8.74l-.34,8.74-.42,8.74c-.34,5.83-.61,11.66-1.01,17.49,0,.14-.13.24-.27.24-.13,0-.23-.11-.24-.24Z"/><path class="cls-11" d="m31.36,73.17c-.4-5-.67-10-1.01-15l-.42-7.5-.34-7.5c-.11-2.5-.31-5-.48-7.5-.16-2.5-.17-5-.03-7.5.15-2.5.38-5,.75-7.5.35-2.5.8-5,1.53-7.5.04-.14.19-.22.33-.18.09.03.15.1.18.18.72,2.5,1.17,5,1.53,7.5.37,2.5.6,5,.75,7.5.15,2.5.14,5-.03,7.5-.17,2.5-.37,5-.48,7.5l-.34,7.5-.42,7.5c-.34,5-.61,10-1.01,15-.01.14-.13.24-.27.23-.13-.01-.22-.11-.23-.23Z"/><path class="cls-8" d="m71.87,73.17c-.4-5-.67-10-1.01-15l-.42-7.5-.34-7.5c-.11-2.5-.31-5-.48-7.5-.16-2.5-.17-5-.03-7.5.15-2.5.38-5,.75-7.5.35-2.5.8-5,1.53-7.5.04-.14.19-.22.33-.18.09.03.15.1.18.18.72,2.5,1.17,5,1.53,7.5.37,2.5.6,5,.75,7.5.15,2.5.14,5-.03,7.5-.17,2.5-.37,5-.48,7.5l-.34,7.5-.42,7.5c-.34,5-.61,10-1.01,15-.01.14-.13.24-.27.23-.13-.01-.22-.11-.23-.23Z"/><path class="cls-6" d="m65.12,78.13c-.4-5.83-.67-11.66-1.01-17.49l-.42-8.74-.34-8.74c-.11-2.91-.31-5.83-.48-8.74-.16-2.91-.17-5.83-.03-8.74.14-2.91.4-5.83.75-8.74.35-2.91.8-5.83,1.53-8.74.03-.14.18-.22.32-.19.1.02.17.1.19.19.72,2.91,1.17,5.83,1.53,8.74.35,2.91.61,5.83.75,8.74.15,2.91.14,5.83-.03,8.74-.17,2.91-.37,5.83-.48,8.74l-.34,8.74-.42,8.74c-.34,5.83-.61,11.66-1.01,17.49,0,.14-.13.24-.27.24-.13,0-.23-.11-.24-.24Z"/><path class="cls-5" d="m58.36,82.41c-.4-6.54-.67-13.08-1.01-19.62l-.42-9.81-.34-9.81c-.14-3.27-.29-6.54-.48-9.81-.16-3.27-.17-6.54-.03-9.81.14-3.27.4-6.54.75-9.81.35-3.27.8-6.54,1.53-9.81.03-.14.17-.23.31-.2.1.02.18.1.2.2.72,3.27,1.17,6.54,1.53,9.81.35,3.27.61,6.54.75,9.81.15,3.27.14,6.54-.03,9.81-.19,3.27-.34,6.54-.48,9.81l-.34,9.81-.42,9.81c-.34,6.54-.61,13.08-1.01,19.62,0,.14-.13.25-.27.24-.13,0-.23-.11-.24-.24Z"/></g><path class="cls-9" d="m90.15,33.27c-.22-4.67-.56-9.34-1.45-14.01-.01-.06-.06-.12-.13-.13-.09-.02-.17.04-.19.13-.89,4.67-1.23,9.34-1.45,14.01-.24,4.67.18,9.34.32,14.01l.48,14.01c.22,4.67.39,9.34.64,14.01,0,.08.07.15.15.15.09,0,.16-.06.17-.15.26-4.67.43-9.34.64-14.01l.48-14.01c.14-4.67.56-9.34.32-14.01Z"/><path class="cls-9" d="m85.65,36.51c-.22-4.31-.56-8.62-1.45-12.93-.01-.06-.06-.11-.13-.13-.09-.02-.18.04-.19.13-.89,4.31-1.23,8.62-1.45,12.93-.24,4.31.18,8.62.32,12.93l.48,12.93c.22,4.31.39,8.62.64,12.93,0,.08.07.15.15.15.09,0,.17-.06.17-.15.26-4.31.43-8.62.64-12.93l.48-12.93c.14-4.31.56-8.62.32-12.93Z"/><path class="cls-9" d="m81.14,40.03c-.22-3.92-.56-7.84-1.45-11.75-.01-.06-.06-.11-.12-.12-.09-.02-.18.04-.2.12-.89,3.92-1.23,7.84-1.45,11.75-.24,3.92.18,7.84.32,11.75l.48,11.75c.22,3.92.39,7.84.64,11.75,0,.08.07.14.15.15.09,0,.17-.06.17-.15.26-3.92.43-7.84.64-11.75l.48-11.75c.14-3.92.56-7.84.32-11.75Z"/><path class="cls-9" d="m103.66,45.1c-.22-3.5-.56-6.99-1.45-10.49-.01-.06-.06-.1-.12-.12-.09-.02-.18.03-.2.12-.89,3.5-1.23,6.99-1.45,10.49-.24,3.5.18,6.99.32,10.49.13,3.5.29,6.99.48,10.49.22,3.5.39,6.99.64,10.49,0,.08.07.14.15.15.09,0,.17-.06.17-.15.26-3.5.43-6.99.64-10.49.19-3.5.35-6.99.48-10.49.14-3.5.56-6.99.32-10.49Z"/><path class="cls-9" d="m99.16,40.03c-.22-3.92-.56-7.84-1.45-11.75-.01-.06-.06-.11-.12-.12-.09-.02-.18.04-.2.12-.89,3.92-1.23,7.84-1.45,11.75-.24,3.92.18,7.84.32,11.75l.48,11.75c.22,3.92.39,7.84.64,11.75,0,.08.07.14.15.15.09,0,.17-.06.17-.15.26-3.92.43-7.84.64-11.75l.48-11.75c.14-3.92.56-7.84.32-11.75Z"/><path class="cls-9" d="m94.65,36.38c-.22-4.32-.56-8.65-1.45-12.97-.01-.06-.06-.11-.13-.13-.09-.02-.18.04-.19.13-.89,4.32-1.23,8.65-1.45,12.97-.24,4.32.18,8.65.32,12.97l.48,12.97c.22,4.32.39,8.65.64,12.97,0,.08.07.15.15.15.09,0,.17-.06.17-.15.26-4.32.43-8.65.64-12.97l.48-12.97c.14-4.32.56-8.65.32-12.97Z"/><path class="cls-10" d="m142.93,42.69c-1.79,1.15-4.02,1.83-6.42,1.83-6.73,0-11.83-5.11-11.83-11.83s5.11-11.83,11.83-11.83c2.4,0,4.63.68,6.42,1.83v2.37c-1.66-1.42-3.92-2.27-6.42-2.27-5.58,0-9.77,4.33-9.77,9.91s4.19,9.91,9.77,9.91c2.5,0,4.77-.85,6.42-2.23v2.33Z"/><path class="cls-10" d="m159.94,36.97h-9.84l-2.67,7.2h-2.2l8.72-22.99h2.2l8.72,22.99h-2.2l-2.74-7.2Zm-9.2-1.86h8.56l-4.26-11.36-4.29,11.36Z"/><path class="cls-10" d="m171.06,23.01h-6.42v-1.83h14.74v1.83h-6.36v21.17h-1.96v-21.17Z"/><path class="cls-10" d="m199.56,33.52h-14.44v10.65h-1.96v-22.99h1.96v10.52h14.44v-10.52h1.96v22.99h-1.96v-10.65Z"/><path class="cls-10" d="m207.98,44.18v-22.99h12v1.83h-10.04v8.69h9.37v1.83h-9.37v8.83h10.04v1.83h-12Z"/><path class="cls-10" d="m225.53,21.18h7.88c6.8,0,11.19,4.77,11.19,11.5s-4.4,11.5-11.19,11.5h-7.88v-22.99Zm1.96,1.83v19.34h5.88c5.65,0,9.2-4.09,9.2-9.67s-3.55-9.67-9.2-9.67h-5.88Z"/><path class="cls-10" d="m249.46,21.18h6.22c4.16,0,7.03,2.4,7.03,6.32,0,3.35-2.16,5.27-5.04,5.95,2.71,1.18,5.38,5,6.36,10.72h-2.03c-1.15-6.09-4.5-10.14-7.61-10.14h-2.98v10.14h-1.96v-22.99Zm6.19,1.83h-4.23v9.2h4.23c2.87,0,5-1.62,5-4.57s-2.13-4.63-5-4.63Z"/><path class="cls-10" d="m280.67,36.97h-9.84l-2.67,7.2h-2.2l8.72-22.99h2.2l8.72,22.99h-2.2l-2.74-7.2Zm-9.2-1.86h8.55l-4.26-11.36-4.29,11.36Z"/><path class="cls-10" d="m289.43,44.18v-22.99h1.96v21.17h10.04v1.83h-12Z"/><path class="cls-10" d="m136.74,75.4l-8.49-19.07v19.07h-1.96v-22.99h2.23l9.1,20.52,9.13-20.52h2.2v22.99h-1.96v-19.07l-8.45,19.07h-1.79Z"/><path class="cls-10" d="m171.33,52.4v15.01c0,5.04-3.11,8.32-8.08,8.32s-8.15-3.28-8.15-8.32v-15.01h1.96v15.08c0,3.79,2.47,6.32,6.22,6.32s6.09-2.54,6.09-6.32v-15.08h1.96Z"/><path class="cls-10" d="m187.9,55.82c-1.29-1.08-3.01-1.86-5.04-1.86-2.77,0-4.6,1.49-4.6,3.75,0,1.42.71,2.47,2.3,3.52l4.46,2.87c2.81,1.76,3.79,3.35,3.79,5.68,0,3.11-2.43,5.95-7.03,5.95-2.4,0-4.33-.78-5.58-1.52v-2.43c1.18,1.01,3.04,2.06,5.55,2.06,3.28,0,4.97-1.93,4.97-3.99,0-1.45-.91-2.74-2.81-3.96l-4.4-2.84c-2.43-1.52-3.35-3.14-3.35-5.28,0-2.81,1.96-5.71,6.8-5.71,2.13,0,3.79.64,4.94,1.39v2.37Z"/><path class="cls-10" d="m193.54,52.4h1.96v22.99h-1.96v-22.99Z"/><path class="cls-10" d="m218.56,73.91c-1.79,1.15-4.02,1.83-6.42,1.83-6.73,0-11.83-5.11-11.83-11.83s5.11-11.83,11.83-11.83c2.4,0,4.63.68,6.42,1.83v2.37c-1.66-1.42-3.92-2.27-6.42-2.27-5.58,0-9.77,4.33-9.77,9.91s4.19,9.91,9.77,9.91c2.5,0,4.77-.85,6.42-2.23v2.33Z"/><path class="cls-10" d="m234.49,54.23h-6.42v-1.83h14.74v1.83h-6.36v21.17h-1.96v-21.17Z"/><path class="cls-10" d="m246.59,52.4h6.22c4.16,0,7.03,2.4,7.03,6.32,0,3.35-2.16,5.27-5.04,5.95,2.71,1.18,5.38,5,6.36,10.72h-2.03c-1.15-6.09-4.5-10.14-7.61-10.14h-2.97v10.14h-1.96v-22.99Zm6.19,1.83h-4.23v9.2h4.23c2.87,0,5-1.62,5-4.57s-2.13-4.63-5-4.63Z"/><path class="cls-10" d="m281.62,52.4v15.01c0,5.04-3.11,8.32-8.08,8.32s-8.15-3.28-8.15-8.32v-15.01h1.96v15.08c0,3.79,2.47,6.32,6.22,6.32s6.09-2.54,6.09-6.32v-15.08h1.96Z"/><path class="cls-10" d="m298.18,55.82c-1.28-1.08-3.01-1.86-5.04-1.86-2.77,0-4.6,1.49-4.6,3.75,0,1.42.71,2.47,2.3,3.52l4.46,2.87c2.81,1.76,3.79,3.35,3.79,5.68,0,3.11-2.44,5.95-7.03,5.95-2.4,0-4.33-.78-5.58-1.52v-2.43c1.18,1.01,3.04,2.06,5.55,2.06,3.28,0,4.97-1.93,4.97-3.99,0-1.45-.91-2.74-2.81-3.96l-4.4-2.84c-2.44-1.52-3.35-3.14-3.35-5.28,0-2.81,1.96-5.71,6.8-5.71,2.13,0,3.79.64,4.94,1.39v2.37Z"/><path class="cls-10" d="m307.62,54.23h-6.43v-1.83h14.74v1.83h-6.36v21.17h-1.96v-21.17Z"/></g></g></svg>
