<svg version="1.1" id="Layer_1" xmlns="http://www.w3.org/2000/svg" xmlns:xlink="http://www.w3.org/1999/xlink" x="0px" y="0px" viewBox="0 0 137.3 21.4" style="enable-background:new 0 0 137.3 21.4;" xml:space="preserve">
<style type="text/css">
	.st0{fill:#FFFFFF;}
</style>
<path class="st0" d="M131.5,19.1l-5.2-5.5l2.6-2.7l2.7,2.8l2.6-2.7l2.6,2.7L131.5,19.1z M118.9,6l-7.1,7.4l-2.6-2.7l9.6-10.1l9.6,10  l-2.6,2.7L118.9,6z M118.9,20.7l-6.7-7l6.8-7.1l6.7,7L118.9,20.7z M106.3,19.1l-5.2-5.5l2.6-2.7l2.7,2.8L109,11l2.6,2.7L106.3,19.1z   M93.8,6l-7.1,7.4l-2.6-2.7l9.6-10.1l9.6,10l-2.6,2.7L93.8,6z M93.7,20.7l-6.7-7l6.8-7.1l6.7,7L93.7,20.7z M81.2,19.1L76,13.7  l2.6-2.7l2.7,2.8l2.6-2.7l2.6,2.7L81.2,19.1z M68.7,6l-7.1,7.4L59,10.7l9.6-10.1l9.6,10l-2.6,2.7L68.7,6z M68.6,20.7l-6.7-7l6.8-7.1  l6.7,7L68.6,20.7z M56.1,19.1l-5.2-5.5l2.6-2.7l2.7,2.8l2.6-2.7l2.6,2.7L56.1,19.1z M43.5,6l-7.1,7.4l-2.6-2.7l9.6-10.1l9.6,10  l-2.6,2.7L43.5,6z M43.5,20.7l-6.7-7l6.8-7.1l6.7,7L43.5,20.7z M31,19.1l-5.2-5.5l2.6-2.7l2.7,2.8l2.6-2.7l2.6,2.7L31,19.1z M18.4,6  l-7.1,7.4l-2.6-2.7l9.6-10.1l9.6,10l-2.6,2.7L18.4,6z M18.4,20.7l-6.7-7l6.8-7.1l6.7,7L18.4,20.7z M5.9,19.1l-5.2-5.5L3.2,11  l2.7,2.8L8.5,11l2.6,2.7L5.9,19.1z M5.8,8.3l2.3,2.4l-2.3,2.4l-2.3-2.4L5.8,8.3z M30.9,8.3l2.3,2.4L31,13.1l-2.3-2.4L30.9,8.3z   M56.1,8.3l2.3,2.4l-2.3,2.4l-2.3-2.4L56.1,8.3z M81.2,8.3l2.3,2.4l-2.3,2.4l-2.3-2.4L81.2,8.3z M106.3,8.3l2.3,2.4l-2.3,2.4  l-2.3-2.4L106.3,8.3z M131.4,8.3l2.3,2.4l-2.3,2.4l-2.3-2.4L131.4,8.3z M131.4,7.6l-2.6,2.7L118.9,0L109,10.4l-2.7-2.8l-2.6,2.7  L93.8,0l-10,10.4l-2.7-2.8l-2.6,2.7L68.7,0l-10,10.4l-2.7-2.8l-2.6,2.7L43.5,0l-10,10.4l-2.7-2.8l-2.6,2.7L18.4,0L8.5,10.4L5.8,7.6  L0,13.7l0.2,0.2h0l5.7,5.9l5.5-5.7l7,7.3l7.1-7.4l5.5,5.8l5.5-5.7l7,7.3l7.1-7.4l5.5,5.8l5.5-5.7l7,7.3l7.1-7.4l5.5,5.8l5.5-5.7  l7,7.3l7.1-7.4l5.5,5.8l5.5-5.7l7,7.3l7.1-7.4l5.5,5.8l5.5-5.7l0.3-0.3L131.4,7.6z"/>
</svg>
