<svg version="1.1" id="Layer_1" xmlns="http://www.w3.org/2000/svg" xmlns:xlink="http://www.w3.org/1999/xlink" x="0px" y="0px" viewBox="0 0 679.1 186.7" style="enable-background:new 0 0 679.1 186.7;" xml:space="preserve">
<style type="text/css">
	.st0{fill:#ffffff;}
</style>
<g>
	<path class="st0" d="M184.2,159.7c-0.5,0.5-1.1,0.9-1.6,1.2c-0.5,0.3-1.1,0.6-1.7,0.9c-0.6,0.2-1.3,0.4-2,0.5   c-0.7,0.1-1.5,0.2-2.4,0.2c-1.5,0-2.9-0.3-4.2-0.8c-1.3-0.5-2.4-1.3-3.3-2.3c-0.9-1-1.7-2.3-2.2-3.8c-0.5-1.5-0.8-3.2-0.8-5.1   c0-1.8,0.3-3.5,0.8-5c0.5-1.5,1.3-2.8,2.3-3.8c1-1,2.1-1.8,3.5-2.4c1.4-0.6,2.8-0.8,4.5-0.8c0.9,0,1.7,0.1,2.4,0.2   c0.7,0.1,1.3,0.3,1.8,0.5c0.5,0.2,1,0.4,1.4,0.6c0.4,0.2,0.7,0.4,1,0.6c0.3,0.2,0.5,0.4,0.7,0.5c0.2,0.1,0.4,0.2,0.6,0.2   c0.2,0,0.4,0,0.6-0.1c0.1-0.1,0.2-0.2,0.3-0.4l1.3-1.9c-1.3-1.2-2.7-2.1-4.3-2.8s-3.6-1-5.8-1c-2.3,0-4.3,0.4-6.2,1.1   c-1.9,0.8-3.5,1.8-4.8,3.2c-1.3,1.4-2.4,3-3.1,4.9c-0.7,1.9-1.1,4-1.1,6.3c0,2.3,0.3,4.4,1,6.3c0.7,1.9,1.7,3.6,2.9,4.9   c1.3,1.4,2.8,2.4,4.6,3.2c1.8,0.8,3.8,1.1,6,1.1c2.5,0,4.7-0.4,6.4-1.2c1.8-0.8,3.3-1.9,4.5-3.4l-1.6-1.8c-0.2-0.2-0.4-0.3-0.6-0.3   C184.7,159.4,184.5,159.5,184.2,159.7 M239.6,135.2h-4.2l-12.2,30.5h3.2c0.4,0,0.7-0.1,0.9-0.3c0.2-0.2,0.4-0.4,0.5-0.7l2.9-7.4   h13.7l2.9,7.4c0.1,0.3,0.3,0.5,0.5,0.7c0.2,0.2,0.5,0.3,0.9,0.3h3.2L239.6,135.2z M236.6,142c0.1-0.4,0.3-0.8,0.4-1.3   c0.2-0.5,0.3-1,0.5-1.6c0.3,1.1,0.6,2.1,0.9,2.9l4.8,12.4h-11.4L236.6,142z M283.8,135.2v3.5h9.9v27h4.1v-27h9.9v-3.5H283.8z    M370.8,135.2h-4.2v13.6h-16.4v-13.6h-4.2v30.5h4.2v-13.9h16.4v13.9h4.2V135.2z M412.3,135.2v30.5h18.8v-3.4h-14.6v-10.4h11.9v-3.2   h-11.9v-10.1h14.6v-3.4H412.3z M496.5,144.3c-0.7-1.9-1.7-3.5-3.1-4.8c-1.3-1.3-2.9-2.4-4.7-3.1c-1.8-0.7-3.9-1.1-6.1-1.1h-11.4   v30.5h11.4c2.2,0,4.3-0.4,6.1-1.1c1.8-0.7,3.4-1.8,4.7-3.1c1.3-1.3,2.3-2.9,3.1-4.8c0.7-1.9,1.1-3.9,1.1-6.2   C497.6,148.2,497.2,146.1,496.5,144.3 M492.6,155.5c-0.5,1.5-1.2,2.7-2.2,3.7c-0.9,1-2.1,1.8-3.4,2.3c-1.3,0.5-2.8,0.8-4.5,0.8   h-7.3v-23.8h7.3c1.6,0,3.1,0.3,4.5,0.8c1.3,0.5,2.5,1.3,3.4,2.3c0.9,1,1.7,2.3,2.2,3.7c0.5,1.5,0.8,3.1,0.8,5   S493.1,154,492.6,155.5 M545,153c0.6,0,1,0.1,1.3,0.2c0.3,0.2,0.5,0.4,0.8,0.7l7.9,10.9c0.4,0.6,0.9,0.9,1.7,0.9h3.7l-8.9-12.1   c-0.4-0.6-0.8-1-1.4-1.3c1.2-0.3,2.2-0.7,3.2-1.2c0.9-0.5,1.7-1.2,2.4-1.9c0.6-0.7,1.1-1.6,1.5-2.5c0.3-0.9,0.5-1.9,0.5-3   c0-1.3-0.2-2.5-0.7-3.5c-0.4-1-1.1-1.9-2-2.7c-0.9-0.7-2.1-1.3-3.5-1.7c-1.4-0.4-3.1-0.6-5-0.6h-8.6v30.5h4.1V153H545z    M541.8,138.5h4.5c2.4,0,4.2,0.5,5.3,1.4c1.2,0.9,1.8,2.3,1.8,4.1c0,0.9-0.2,1.7-0.5,2.4c-0.3,0.7-0.8,1.4-1.4,1.9   c-0.6,0.5-1.4,0.9-2.3,1.2c-0.9,0.3-2,0.4-3.2,0.4h-4.3V138.5z M611.7,135.2h-4.2l-12.2,30.5h3.2c0.4,0,0.7-0.1,0.9-0.3   c0.2-0.2,0.4-0.4,0.5-0.7l2.9-7.4h13.7l2.9,7.4c0.1,0.3,0.3,0.5,0.5,0.7c0.2,0.2,0.5,0.3,0.9,0.3h3.2L611.7,135.2z M608.7,142   c0.1-0.4,0.3-0.8,0.4-1.3c0.1-0.5,0.3-1,0.5-1.6c0.3,1.1,0.6,2.1,0.9,2.9l4.8,12.4h-11.4L608.7,142z M665.9,135.2h-4.1v30.5h17.3   v-3.5h-13.2V135.2z"/>
	<path class="st0" d="M199.3,65.6H193v20.7h-25V65.6h-6.3v46.4h6.3V90.8h25v21.1h6.3V65.6z M236.5,65.6v46.4h28.6v-5.1h-22.3V91h18   v-4.9h-18V70.7h22.3v-5.1H236.5z M311.7,92.6c0.9,0,1.5,0.1,1.9,0.3c0.4,0.2,0.8,0.6,1.2,1.1l12,16.6c0.5,0.9,1.4,1.3,2.5,1.3h5.6   l-13.5-18.4c-0.6-0.9-1.3-1.5-2.1-2c1.8-0.4,3.4-1,4.8-1.8c1.4-0.8,2.6-1.8,3.6-2.9c1-1.1,1.7-2.4,2.3-3.8c0.5-1.4,0.8-3,0.8-4.6   c0-2-0.3-3.7-1-5.3c-0.7-1.6-1.7-2.9-3.1-4.1c-1.4-1.1-3.2-2-5.3-2.6c-2.1-0.6-4.7-0.9-7.6-0.9h-13.1v46.4h6.2V92.6H311.7z    M306.9,70.5h6.9c3.6,0,6.3,0.7,8.1,2.1c1.8,1.4,2.7,3.5,2.7,6.3c0,1.4-0.2,2.6-0.7,3.7c-0.5,1.1-1.2,2.1-2.1,2.9   c-0.9,0.8-2.1,1.4-3.5,1.9c-1.4,0.4-3,0.7-4.8,0.7h-6.6V70.5z M367.7,65.6v46.4h28.6v-5.1H374V91h18v-4.9h-18V70.7h22.3v-5.1H367.7   z M431.2,65.6v46.4h6.3V92h19v-5.1h-19V70.7h22.3v-5.1H431.2z M535.2,79.2c-1.1-2.9-2.7-5.4-4.7-7.5c-2-2.1-4.4-3.7-7.2-4.9   c-2.8-1.2-5.9-1.8-9.3-1.8c-3.4,0-6.5,0.6-9.3,1.8c-2.8,1.2-5.2,2.8-7.2,4.9c-2,2.1-3.6,4.6-4.7,7.5c-1.1,2.9-1.7,6.1-1.7,9.6   s0.6,6.7,1.7,9.6c1.1,2.9,2.7,5.4,4.7,7.5c2,2.1,4.4,3.7,7.2,4.9c2.8,1.2,5.9,1.7,9.3,1.7c3.4,0,6.5-0.6,9.3-1.7   c2.8-1.2,5.2-2.8,7.2-4.9c2-2.1,3.6-4.6,4.7-7.5c1.1-2.9,1.7-6.1,1.7-9.6S536.3,82.1,535.2,79.2 M529.2,96.4   c-0.8,2.3-1.9,4.2-3.3,5.7c-1.4,1.6-3.2,2.8-5.2,3.6c-2,0.8-4.3,1.2-6.8,1.2c-2.5,0-4.7-0.4-6.8-1.2c-2-0.8-3.8-2-5.2-3.6   c-1.4-1.6-2.5-3.5-3.3-5.7c-0.8-2.3-1.2-4.8-1.2-7.7c0-2.8,0.4-5.4,1.2-7.7c0.8-2.3,1.9-4.2,3.3-5.7c1.4-1.6,3.2-2.8,5.2-3.6   c2-0.8,4.3-1.3,6.8-1.3c2.5,0,4.8,0.4,6.8,1.3c2,0.8,3.8,2,5.2,3.6c1.4,1.6,2.5,3.5,3.3,5.7c0.8,2.3,1.2,4.8,1.2,7.7   C530.4,91.6,530,94.2,529.2,96.4 M583,92.6c0.9,0,1.5,0.1,1.9,0.3c0.4,0.2,0.8,0.6,1.2,1.1l12,16.6c0.5,0.9,1.4,1.3,2.5,1.3h5.6   l-13.5-18.4c-0.6-0.9-1.3-1.5-2.1-2c1.8-0.4,3.4-1,4.8-1.8c1.4-0.8,2.6-1.8,3.6-2.9s1.7-2.4,2.3-3.8c0.5-1.4,0.8-3,0.8-4.6   c0-2-0.3-3.7-1-5.3c-0.7-1.6-1.7-2.9-3.1-4.1c-1.4-1.1-3.2-2-5.3-2.6c-2.1-0.6-4.7-0.9-7.6-0.9H572v46.4h6.3V92.6H583z M578.2,70.5   h6.9c3.6,0,6.3,0.7,8.1,2.1c1.8,1.4,2.7,3.5,2.7,6.3c0,1.4-0.2,2.6-0.7,3.7c-0.5,1.1-1.2,2.1-2.1,2.9c-0.9,0.8-2.1,1.4-3.5,1.9   c-1.4,0.4-3,0.7-4.8,0.7h-6.6V70.5z M677.5,79.3c-1.1-2.8-2.7-5.3-4.7-7.3c-2-2-4.4-3.6-7.2-4.7c-2.8-1.1-5.9-1.7-9.3-1.7h-17.4   v46.4h17.4c3.4,0,6.5-0.6,9.3-1.7c2.8-1.1,5.2-2.7,7.2-4.7c2-2,3.6-4.5,4.7-7.3c1.1-2.8,1.7-6,1.7-9.5S678.6,82.1,677.5,79.3    M671.5,96.4c-0.8,2.2-1.9,4.1-3.3,5.7s-3.2,2.7-5.2,3.5c-2,0.8-4.3,1.2-6.8,1.2h-11V70.6h11c2.5,0,4.7,0.4,6.8,1.2   c2,0.8,3.8,2,5.2,3.6s2.5,3.5,3.3,5.7c0.8,2.2,1.2,4.8,1.2,7.6C672.7,91.6,672.3,94.2,671.5,96.4"/>
</g>
<polygon class="st0" points="59.3,0 59.3,1.8 59.3,3.3 59.3,4.2 59.3,5 59.3,25.8 59.3,186.7 64.7,184.1 64.7,48.2 66,40.2   65.9,31.3 65.9,25.8 65.7,24.8 60.6,5 62.5,5 62.5,1.7 60.2,3.3 60.2,0 "/>
<g>
	<path class="st0" d="M6.8,89.9c0,0,1.1-4.2,2.4-4.9c-0.3-0.3-0.5-0.5-0.8-0.5c-1.6,0-2.8,5.5-2.8,5.5v23l1.2,0.2V89.9z"/>
	<path class="st0" d="M30.4,134.2v26.1l2,1v-27.2c0,0,1.7-5,3.9-5.9c-0.4-0.4-0.9-0.6-1.4-0.6C32.5,127.6,30.4,134.2,30.4,134.2"/>
	<path class="st0" d="M17.5,129.7v24.6l1.6,0.8v-25.5c0,0,1.4-4,3.2-4.7c-0.3-0.3-0.7-0.5-1.1-0.5C19.1,124.4,17.5,129.7,17.5,129.7   "/>
	<path class="st0" d="M5.5,125.6v23.1l1.2,0.6v-23.8c0,0,1.1-3.1,2.4-3.6c-0.3-0.2-0.5-0.4-0.8-0.4C6.8,121.5,5.5,125.6,5.5,125.6"/>
	<path class="st0" d="M21.4,78.6c-0.4-0.4-0.8-0.7-1.3-0.7c-2.4,0-4.3,7.1-4.3,7.1v29.7l1.9,0.3v-0.9l5-0.6l-5-0.6v-1.3l5-0.6   l-5-0.6v-1.3l5-0.6l-5-0.6v-1.3l5-0.6l-5-0.6v-1.3l5-0.6l-5-0.6v-1.3l5-0.6l-5-0.6v-1.3l5-0.6l-5-0.6v-1.3l5-0.6l-5-0.6v-1.3l5-0.6   l-5-0.6v-1.3l5-0.6l-5-0.6v-1.3l5-0.6l-5-0.6v-1.3l5-0.6l-5-0.6v-0.4C17.7,84.9,19.3,79.6,21.4,78.6"/>
	<path class="st0" d="M33.4,116l6.4-0.9l-6.4-0.5V113l6.4-0.9l-6.4-0.5v-1.7l6.4-0.9l-6.4-0.5v-1.7l6.4-0.9l-6.4-0.5v-1.7l6.4-0.9   l-6.4-0.5v-1.7l6.4-0.9l-6.4-0.5v-1.7l6.4-0.9l-6.4-0.5v-1.7l6.4-0.9l-6.4-0.5v-1.7l6.4-0.9L33.4,90v-1.7l6.4-0.9L33.4,87v-1.7   l6.4-0.9l-6.4-0.5v-1.7l6.4-0.9l-6.4-0.5v-1.3c0,0,2-6.7,4.6-7.9c-0.5-0.5-1-0.9-1.6-0.9c-3,0-5.4,8.9-5.4,8.9v37.1l2.4,0.3V116z"/>
</g>
<polygon class="st0" points="47.4,51.3 47.2,54.6 49.8,53.7 49.8,51.4 48.4,50.1 "/>
<g>
	<path class="st0" d="M46.3,119.3l2.5,0.4V72.8c0,0,0.4-1.4,1-3.1v-6c-2,3.1-3.5,9.3-3.5,9.3V119.3z"/>
</g>
<polygon class="st0" points="49.8,127.1 49.8,125.7 2.3,116.1 "/>
<polygon class="st0" points="39.8,53.9 39.5,57.1 42.1,56.2 42.1,54 40.7,52.7 "/>
<polygon class="st0" points="32.5,56.5 32.3,59.5 34.9,58.7 34.9,56.6 33.5,55.3 "/>
<polygon class="st0" points="25.4,58.6 25.1,61.9 27.7,61.1 27.7,58.9 26.2,57.5 "/>
<polygon class="st0" points="18.1,61.2 17.8,64.4 20.4,63.5 20.4,61.4 19,60.2 "/>
<polygon class="st0" points="10.5,66.9 14.1,65.9 14.5,62.8 15.5,61.7 16.2,61.4 16.2,52.8 16.2,50.7 16.2,41.3 14.6,43.2   11.4,28.3 12.8,28.3 12.8,25.9 11.1,26.8 11.1,26.8 11.1,24 10.5,24 10.5,26.8 10.5,27.6 10.5,28.3 10.5,28.3 "/>
<polygon class="st0" points="0,58.1 0,59.8 0,59.9 0,60.3 0,60.7 0,67.2 0,78.8 0,136.4 1.2,78.5 3.8,77.8 0.4,60.7 1.4,60.7   1.4,59.3 0.4,59.8 0.4,58.1 "/>
<g>
	<path class="st0" d="M56.1,33l-1-0.5v1.4h1l-1.6,10.2l-0.6-0.8v4.9v2V184c1,0.5,1.9,0.9,2.6,1.3V33.9v-0.4v-0.4V33v-1.7h-0.4V33z"/>
	<path class="st0" d="M45.1,138.8V168l2.3,1.1v-30.5c0,0,1-2.8,2.4-4.8v-2.5C47.2,132.2,45.1,138.8,45.1,138.8"/>
	<path class="st0" d="M69.6,127.1v-1.4l47.5-9.6L69.6,127.1z M113.3,148.7l-1.2,0.6v-23.8c0,0-1.1-3.1-2.4-3.6   c0.3-0.2,0.5-0.4,0.8-0.4c1.6,0,2.8,4.1,2.8,4.1V148.7z M102.2,154.3l-1.6,0.8v-25.5c0,0-1.4-4-3.2-4.7c0.3-0.3,0.7-0.5,1.1-0.5   c2,0,3.7,5.3,3.7,5.3V154.3z M89.3,160.3l-2,1v-27.2c0,0-1.7-5-3.9-5.9c0.4-0.4,0.9-0.6,1.4-0.6c2.5,0,4.6,6.6,4.6,6.6V160.3z    M74.2,168l-2.3,1.1v-30.5c0,0-1-2.8-2.4-4.7v-2.5c2.6,0.8,4.6,7.3,4.6,7.3V168z M69.6,62.3c2.6,2,4.6,10.6,4.6,10.6v46.4l-2.5,0.4   V72.8c0,0-0.8-3.2-2.1-6.1V62.3z M80.7,112.1l6.4-0.5v-1.7l-6.4-0.9l6.4-0.5v-1.7l-6.4-0.9l6.4-0.5v-1.7l-6.4-0.9l6.4-0.5v-1.7   l-6.4-0.9l6.4-0.5v-1.7l-6.4-0.9l6.4-0.5v-1.7l-6.4-0.9l6.4-0.5v-1.7l-6.4-0.9l6.4-0.5v-1.7l-6.4-0.9l6.4-0.5v-1.7l-6.4-0.9   l6.4-0.5v-1.7l-6.4-0.9l6.4-0.5v-1.3c0,0-2-6.7-4.6-7.9c0.5-0.5,1-0.9,1.6-0.9c3,0,5.4,8.9,5.4,8.9v37.1l-2.4,0.3V116l-6.4-0.9   l6.4-0.5V113L80.7,112.1z M96.2,111.1l5-0.6v-1.3l-5-0.6l5-0.6v-1.3l-5-0.6l5-0.6v-1.3l-5-0.6l5-0.6v-1.3l-5-0.6l5-0.6v-1.3l-5-0.6   l5-0.6v-1.3l-5-0.6l5-0.6v-1.3l-5-0.6l5-0.6v-1.3l-5-0.6l5-0.6v-1.3l-5-0.6l5-0.6v-1.3l-5-0.6l5-0.6v-0.4c0,0-1.6-5.4-3.7-6.3   c0.4-0.4,0.8-0.7,1.3-0.7c2.4,0,4.3,7.1,4.3,7.1v29.7l-1.9,0.3v-0.9l-5-0.6l5-0.6v-1.3L96.2,111.1z M110.5,84.4   c1.6,0,2.8,5.5,2.8,5.5v23l-1.2,0.2V89.9c0,0-1.1-4.2-2.4-4.9C109.9,84.6,110.2,84.4,110.5,84.4 M121.3,74.3l-2.2-13.6h1v-1.4   l-1,0.5v-1.7h-0.4v0v0v1.7v0.4v0.4v16.8v59l-1.2-59.6l-2.2-1.1v0l-1.6-0.8l0-0.1l0,0l-0.1-23.3V41.2l-1.6,1.9l-3-14.9h1.4v-2.4   l-1.7,0.9V24H108v0l0,0.2l0,46.6h0l0,0l-0.9-0.5l-0.3-1.8l-1.1-1.1l-3.4-1.6l1,1.1l0.1,1.6l-1.2-0.6l-2.2-1.1l-0.3-2l-1.1-1.1   l-3.5-1.6l1,1.1l0.1,1.8l-4.6-2.3l-0.3-2.3l-1.1-1.1l-3.4-1.6l1,1.1l0.1,2.1l-0.9-0.5l-3.9-2l-0.3-2l-1.1-1.1l-3.5-1.6l1,1.1   l0.1,1.8l-5-2.5L74.1,52L73,50.9l-2.5-1.1v-6.5l-0.7,0.8l-2-10.2h0.9v-1.4l-1,0.5v-1.7h-0.4V33v0.1v0.3v0.4v148.9l54.8-26.9V80.3   v-6.9L121.3,74.3z"/>
</g>
</svg>
